<svg xmlns="http://www.w3.org/2000/svg" width="920" height="660" viewBox="0 0 920 660">
<defs>
<marker id="arrow-red" markerWidth="12" markerHeight="12" refX="10" refY="6" orient="auto">
<path d="M 0 0 L 12 6 L 0 12 z" fill="#d12f2f"/>
</marker>
</defs>
<rect width="100%" height="100%" fill="white"/>
<text x="460.0" y="36.0" font-family="Arial, sans-serif" font-size="24" font-weight="bold" text-anchor="middle" fill="#222222">Задача 1: политропное сжатие H2O в T-s</text>
<line x1="150.3" y1="75.0" x2="150.3" y2="565.0" stroke="#e6e6e6" stroke-width="1" />
<line x1="150.3" y1="565.0" x2="150.3" y2="572.0" stroke="#222222" stroke-width="1.4" />
<text x="150.3" y="595.0" font-family="Arial, sans-serif" font-size="13" font-weight="normal" text-anchor="middle" fill="#222222">-0,070</text>
<line x1="331.5" y1="75.0" x2="331.5" y2="565.0" stroke="#e6e6e6" stroke-width="1" />
<line x1="331.5" y1="565.0" x2="331.5" y2="572.0" stroke="#222222" stroke-width="1.4" />
<text x="331.5" y="595.0" font-family="Arial, sans-serif" font-size="13" font-weight="normal" text-anchor="middle" fill="#222222">-0,050</text>
<line x1="512.6" y1="75.0" x2="512.6" y2="565.0" stroke="#e6e6e6" stroke-width="1" />
<line x1="512.6" y1="565.0" x2="512.6" y2="572.0" stroke="#222222" stroke-width="1.4" />
<text x="512.6" y="595.0" font-family="Arial, sans-serif" font-size="13" font-weight="normal" text-anchor="middle" fill="#222222">-0,030</text>
<line x1="693.8" y1="75.0" x2="693.8" y2="565.0" stroke="#e6e6e6" stroke-width="1" />
<line x1="693.8" y1="565.0" x2="693.8" y2="572.0" stroke="#222222" stroke-width="1.4" />
<text x="693.8" y="595.0" font-family="Arial, sans-serif" font-size="13" font-weight="normal" text-anchor="middle" fill="#222222">-0,010</text>
<line x1="784.4" y1="75.0" x2="784.4" y2="565.0" stroke="#e6e6e6" stroke-width="1" />
<line x1="784.4" y1="565.0" x2="784.4" y2="572.0" stroke="#222222" stroke-width="1.4" />
<text x="784.4" y="595.0" font-family="Arial, sans-serif" font-size="13" font-weight="normal" text-anchor="middle" fill="#222222">0,000</text>
<line x1="105.0" y1="565.0" x2="875.0" y2="565.0" stroke="#e6e6e6" stroke-width="1" />
<line x1="98.0" y1="565.0" x2="105.0" y2="565.0" stroke="#222222" stroke-width="1.4" />
<text x="92.0" y="570.0" font-family="Arial, sans-serif" font-size="13" font-weight="normal" text-anchor="end" fill="#222222">800</text>
<line x1="105.0" y1="460.0" x2="875.0" y2="460.0" stroke="#e6e6e6" stroke-width="1" />
<line x1="98.0" y1="460.0" x2="105.0" y2="460.0" stroke="#222222" stroke-width="1.4" />
<text x="92.0" y="465.0" font-family="Arial, sans-serif" font-size="13" font-weight="normal" text-anchor="end" fill="#222222">950</text>
<line x1="105.0" y1="355.0" x2="875.0" y2="355.0" stroke="#e6e6e6" stroke-width="1" />
<line x1="98.0" y1="355.0" x2="105.0" y2="355.0" stroke="#222222" stroke-width="1.4" />
<text x="92.0" y="360.0" font-family="Arial, sans-serif" font-size="13" font-weight="normal" text-anchor="end" fill="#222222">1100</text>
<line x1="105.0" y1="250.0" x2="875.0" y2="250.0" stroke="#e6e6e6" stroke-width="1" />
<line x1="98.0" y1="250.0" x2="105.0" y2="250.0" stroke="#222222" stroke-width="1.4" />
<text x="92.0" y="255.0" font-family="Arial, sans-serif" font-size="13" font-weight="normal" text-anchor="end" fill="#222222">1250</text>
<line x1="105.0" y1="145.0" x2="875.0" y2="145.0" stroke="#e6e6e6" stroke-width="1" />
<line x1="98.0" y1="145.0" x2="105.0" y2="145.0" stroke="#222222" stroke-width="1.4" />
<text x="92.0" y="150.0" font-family="Arial, sans-serif" font-size="13" font-weight="normal" text-anchor="end" fill="#222222">1400</text>
<line x1="105.0" y1="565.0" x2="875.0" y2="565.0" stroke="#222222" stroke-width="2" />
<line x1="105.0" y1="75.0" x2="105.0" y2="565.0" stroke="#222222" stroke-width="2" />
<text x="490.0" y="630.0" font-family="Arial, sans-serif" font-size="17" font-weight="normal" text-anchor="middle" fill="#222222">s - s1, кДж/(кг*K)</text>
<text x="30" y="320.0" font-family="Arial, sans-serif" font-size="17" text-anchor="middle" fill="#222222" transform="rotate(-90 30 320.0)">T, K</text>
<polyline points="784.4,548.9 766.8,538.5 750.4,528.7 735.1,519.3 720.7,510.4 707.2,501.9 694.4,493.8 682.3,485.9 670.8,478.4 659.8,471.2 649.3,464.2 639.3,457.4 629.6,450.9 620.4,444.5 611.5,438.3 603.0,432.3 594.7,426.5 586.7,420.8 579.0,415.3 571.5,409.9 564.3,404.6 557.3,399.5 550.5,394.4 543.9,389.5 537.4,384.7 531.2,380.0 525.1,375.3 519.1,370.8 513.4,366.4 507.7,362.0 502.2,357.7 496.8,353.5 491.5,349.4 486.4,345.3 481.3,341.3 476.4,337.3 471.6,333.5 466.8,329.7 462.2,325.9 457.6,322.2 453.2,318.6 448.8,315.0 444.5,311.4 440.3,307.9 436.1,304.5 432.1,301.1 428.1,297.7 424.1,294.4 420.3,291.1 416.4,287.9 412.7,284.7 409.0,281.6 405.4,278.5 401.8,275.4 398.3,272.3 394.8,269.3 391.4,266.4 388.0,263.4 384.7,260.5 381.5,257.6 378.2,254.8 375.0,252.0 371.9,249.2 368.8,246.4 365.8,243.7 362.7,241.0 359.8,238.3 356.8,235.7 353.9,233.0 351.0,230.4 348.2,227.8 345.4,225.3 342.6,222.8 339.9,220.3 337.2,217.8 334.5,215.3 331.9,212.9 329.3,210.4 326.7,208.0 324.1,205.7 321.6,203.3 319.1,200.9 316.6,198.6 314.2,196.3 311.8,194.0 309.4,191.8 307.0,189.5 304.7,187.3 302.3,185.1 300.0,182.9 297.7,180.7 295.5,178.5 293.3,176.4 291.0,174.2 288.8,172.1 286.7,170.0 284.5,167.9 282.4,165.8 280.3,163.8 278.2,161.7 276.1,159.7 274.0,157.7 272.0,155.7 270.0,153.7 268.0,151.7 266.0,149.7 264.0,147.8 262.1,145.8 260.1,143.9 258.2,142.0 256.3,140.1 254.4,138.2 252.5,136.3 250.7,134.4 248.8,132.6 247.0,130.7 245.2,128.9 243.4,127.1 241.6,125.2 239.8,123.4 238.0,121.7 236.3,119.9 234.6,118.1 232.8,116.3 231.1,114.6 229.4,112.8 227.7,111.1 226.1,109.4 224.4,107.7 222.7,106.0 221.1,104.3 219.5,102.6 217.9,100.9 216.3,99.2 214.7,97.6 213.1,95.9 211.5,94.3 210.0,92.6 208.4,91.0 206.9,89.4 205.3,87.8" fill="none" stroke="#1368aa" stroke-width="4"/>
<line x1="362.7" y1="241.0" x2="334.5" y2="215.3" stroke="#d12f2f" stroke-width="3" marker-end="url(#arrow-red)"/>
<circle cx="784.4" cy="548.9" r="6" fill="#d12f2f"/>
<text x="802.4" y="573.9" font-family="Arial, sans-serif" font-size="20" font-weight="bold" text-anchor="middle" fill="#d12f2f">1</text>
<circle cx="205.3" cy="87.8" r="6" fill="#d12f2f"/>
<text x="185.3" y="69.8" font-family="Arial, sans-serif" font-size="20" font-weight="bold" text-anchor="middle" fill="#d12f2f">2</text>
</svg>